<svg xmlns="http://www.w3.org/2000/svg" xmlns:xlink="http://www.w3.org/1999/xlink" preserveAspectRatio="xMidYMid" viewBox="0 0 160 40">
  <defs>
    <style>
      .cls-1 {
        fill: transparent;
      }

      .cls-1, .cls-2 {
        fill-rule: evenodd;
      }

      .cls-2 {
        fill: #fff;
      }
    </style>
  </defs>
  <path d="M11.482,12.576 C10.830,12.008 9.821,12.056 9.230,12.684 C8.640,13.312 8.688,14.281 9.341,14.851 C10.835,16.154 11.693,18.019 11.693,19.967 C11.693,21.913 10.833,23.780 9.334,25.087 C8.986,25.390 8.810,25.806 8.810,26.225 C8.810,26.591 8.946,26.961 9.223,27.255 C9.815,27.882 10.824,27.930 11.476,27.360 C13.639,25.472 14.881,22.778 14.881,19.967 C14.881,17.154 13.641,14.460 11.482,12.576 L11.482,12.576 ZM17.524,7.521 C16.903,6.920 15.894,6.917 15.271,7.515 C14.645,8.111 14.644,9.084 15.264,9.684 C18.099,12.430 19.661,16.081 19.661,19.967 C19.661,23.847 18.097,27.498 15.257,30.248 C14.948,30.547 14.793,30.938 14.793,31.329 C14.793,31.723 14.949,32.117 15.263,32.416 C15.887,33.015 16.895,33.012 17.516,32.410 C20.955,29.083 22.849,24.664 22.849,19.967 C22.849,15.264 20.958,10.843 17.524,7.521 L17.524,7.521 ZM23.515,2.442 C22.906,1.831 21.897,1.811 21.261,2.397 C20.625,2.984 20.605,3.956 21.214,4.567 C25.351,8.720 27.631,14.188 27.631,19.967 C27.631,25.734 25.350,31.201 21.206,35.362 C20.911,35.659 20.763,36.041 20.763,36.423 C20.763,36.826 20.927,37.229 21.254,37.531 C21.890,38.117 22.899,38.096 23.508,37.485 C28.222,32.750 30.819,26.530 30.819,19.967 C30.819,13.393 28.224,7.170 23.515,2.442 L23.515,2.442 Z" class="cls-1"/>
  <path d="M57.524,7.521 C56.903,6.920 55.894,6.917 55.271,7.515 C54.645,8.111 54.644,9.084 55.264,9.684 C58.099,12.430 59.661,16.081 59.661,19.967 C59.661,23.847 58.097,27.498 55.257,30.248 C54.948,30.547 54.793,30.938 54.793,31.329 C54.793,31.723 54.949,32.117 55.263,32.416 C55.887,33.015 56.895,33.012 57.516,32.410 C60.955,29.083 62.849,24.664 62.849,19.967 C62.849,15.264 60.958,10.843 57.524,7.521 L57.524,7.521 ZM63.515,2.442 C62.906,1.831 61.897,1.811 61.261,2.397 C60.625,2.984 60.605,3.956 61.214,4.567 C65.351,8.720 67.631,14.188 67.631,19.967 C67.631,25.734 65.350,31.201 61.206,35.362 C60.911,35.659 60.763,36.041 60.763,36.423 C60.763,36.826 60.927,37.229 61.254,37.531 C61.890,38.117 62.899,38.096 63.508,37.485 C68.222,32.750 70.819,26.530 70.819,19.967 C70.819,13.393 68.224,7.170 63.515,2.442 L63.515,2.442 Z" class="cls-1"/>
  <path d="M51.482,12.576 C50.830,12.008 49.821,12.056 49.230,12.684 C48.640,13.312 48.688,14.281 49.341,14.851 C50.835,16.154 51.693,18.019 51.693,19.967 C51.693,21.913 50.833,23.780 49.334,25.087 C48.986,25.390 48.810,25.806 48.810,26.225 C48.810,26.591 48.946,26.961 49.223,27.255 C49.815,27.882 50.824,27.930 51.476,27.360 C53.639,25.472 54.881,22.778 54.881,19.967 C54.881,17.154 53.641,14.460 51.482,12.576 L51.482,12.576 Z" class="cls-2"/>
  <path d="M103.515,2.442 C102.906,1.831 101.897,1.811 101.261,2.397 C100.625,2.984 100.605,3.956 101.214,4.567 C105.351,8.720 107.631,14.188 107.631,19.967 C107.631,25.734 105.350,31.201 101.206,35.362 C100.911,35.659 100.763,36.041 100.763,36.423 C100.763,36.826 100.927,37.229 101.254,37.531 C101.890,38.117 102.899,38.096 103.508,37.485 C108.222,32.750 110.819,26.530 110.819,19.967 C110.819,13.393 108.224,7.170 103.515,2.442 L103.515,2.442 Z" class="cls-1"/>
  <path d="M91.482,12.576 C90.830,12.008 89.821,12.056 89.230,12.684 C88.640,13.312 88.688,14.281 89.341,14.851 C90.835,16.154 91.693,18.019 91.693,19.967 C91.693,21.913 90.833,23.780 89.334,25.087 C88.986,25.390 88.810,25.806 88.810,26.225 C88.810,26.591 88.946,26.961 89.223,27.255 C89.815,27.882 90.824,27.930 91.476,27.360 C93.639,25.472 94.881,22.778 94.881,19.967 C94.881,17.154 93.641,14.460 91.482,12.576 L91.482,12.576 ZM97.524,7.521 C96.903,6.920 95.894,6.917 95.271,7.515 C94.645,8.111 94.644,9.084 95.264,9.684 C98.099,12.430 99.661,16.081 99.661,19.967 C99.661,23.847 98.097,27.498 95.257,30.248 C94.948,30.547 94.793,30.938 94.793,31.329 C94.793,31.723 94.949,32.117 95.263,32.416 C95.887,33.015 96.895,33.012 97.516,32.410 C100.955,29.083 102.849,24.664 102.849,19.967 C102.849,15.264 100.958,10.843 97.524,7.521 L97.524,7.521 Z" class="cls-2"/>
  <path d="M131.482,12.576 C130.830,12.008 129.821,12.056 129.230,12.684 C128.640,13.312 128.688,14.281 129.341,14.851 C130.835,16.154 131.693,18.019 131.693,19.967 C131.693,21.913 130.833,23.780 129.334,25.087 C128.986,25.390 128.810,25.806 128.810,26.225 C128.810,26.591 128.946,26.961 129.223,27.255 C129.815,27.882 130.824,27.930 131.476,27.360 C133.639,25.472 134.881,22.778 134.881,19.967 C134.881,17.154 133.641,14.460 131.482,12.576 L131.482,12.576 ZM137.524,7.521 C136.903,6.920 135.894,6.917 135.271,7.515 C134.645,8.111 134.644,9.084 135.264,9.684 C138.099,12.430 139.661,16.081 139.661,19.967 C139.661,23.847 138.097,27.498 135.257,30.248 C134.948,30.547 134.793,30.938 134.793,31.329 C134.793,31.723 134.949,32.117 135.263,32.416 C135.887,33.015 136.895,33.012 137.516,32.410 C140.955,29.083 142.849,24.664 142.849,19.967 C142.849,15.264 140.958,10.843 137.524,7.521 L137.524,7.521 ZM143.515,2.442 C142.906,1.831 141.897,1.811 141.261,2.397 C140.625,2.984 140.605,3.956 141.214,4.567 C145.351,8.720 147.631,14.188 147.631,19.967 C147.631,25.734 145.350,31.201 141.206,35.362 C140.911,35.659 140.763,36.041 140.763,36.423 C140.763,36.826 140.927,37.229 141.254,37.531 C141.890,38.117 142.899,38.096 143.508,37.485 C148.222,32.750 150.819,26.530 150.819,19.967 C150.819,13.393 148.224,7.170 143.515,2.442 L143.515,2.442 Z" class="cls-2"/>
</svg>
